<?xml version="1.0" encoding="UTF-8"?>
<svg width="128" height="128" viewBox="0 0 128 128" fill="none" xmlns="http://www.w3.org/2000/svg">
  <!-- Background Circle -->
  <rect width="128" height="128" rx="64" fill="#7C3AED"/>
  
  <!-- Letter B -->
  <path d="M80 40H56C49.4 40 44 45.4 44 52V76C44 82.6 49.4 88 56 88H68C81.3 88 92 77.3 92 64C92 50.7 81.3 40 68 40H80ZM60 64V52H68C71.3 52 74 54.7 74 58C74 61.3 71.3 64 68 64H60ZM68 76H60V70H68C71.3 70 74 72.7 74 76C74 79.3 71.3 82 68 82C64.7 82 62 79.3 62 76H60C60 80.4 63.6 84 68 84C72.4 84 76 80.4 76 76C76 71.6 72.4 68 68 68V64C74.6 64 80 58.6 80 52C80 45.4 74.6 40 68 40H56V88H68C77.9 88 86 79.9 86 70C86 60.1 77.9 52 68 52V64C74.6 64 80 69.4 80 76C80 82.6 74.6 88 68 88H56V40H68C77.9 40 86 48.1 86 58C86 67.9 77.9 76 68 76H60Z" fill="white"/>
</svg>
